<svg width="256" height="256" viewBox="0 0 256 256" fill="none" xmlns="http://www.w3.org/2000/svg">
<path d="M240 102.021C240 54.5417 200.724 42 179.92 42H76.0801C28.554 42 16 81.2375 16 102.021V110.262H67.8303V205.758V214H127.91C128.448 214 142.975 214 157.502 206.654C170.235 200.204 185.121 187.304 187.632 161.325C204.131 158.996 240 148.246 240 102.021Z" fill="#131515"/>
<path d="M84.3299 110.262V162.758C94.9111 152.546 108.541 147.708 119.84 146.275V110.262H84.3299Z" fill="#F9F8F7"/>
<path d="M128.09 162.221C128.09 162.221 116.432 162.4 105.313 168.133C93.6557 174.046 86.8407 184.079 84.8679 197.696H127.91C127.91 197.696 139.568 197.517 150.687 191.783C162.344 185.871 169.159 175.838 171.132 162.221H128.09Z" fill="#85FFA7"/>
<path d="M128.09 93.7792C128.09 93.7792 139.747 93.6 150.866 87.8667C162.524 81.9542 169.339 71.9209 171.311 58.3042H76.2594C58.3251 58.3042 45.5917 65.2917 38.418 79.2667C35.7278 84.4625 34.2931 89.6584 33.5757 93.7792H68.0096H84.5092H128.09Z" fill="#FFB342"/>
<path d="M202.697 64.2166C197.316 61.5291 191.936 60.0958 187.632 59.2C184.762 84.1041 170.056 96.6458 157.681 102.917C149.79 106.858 141.899 108.65 136.339 109.546V145.737H180.099C180.099 145.737 191.757 145.558 202.876 139.825C216.865 132.658 223.859 119.937 223.859 102.021C223.859 84.1041 216.506 71.3833 202.697 64.2166Z" fill="#0D99FF"/>
</svg>
